<svg id="Layer_2" data-name="Layer 2" xmlns="http://www.w3.org/2000/svg" viewBox="0 0 465 165"><defs><style>.cls-1{fill:#7e7e80;}.cls-2{fill:#fff;}</style></defs><path class="cls-1" d="M465.1,5.59V60.71c-16,5.57-31.82,11.87-48.13,16.51-40.45,11.51-83.36,21.65-125.52,23.43-54.56,2.3-109.41,1.42-163.79-5.9-17.52-2.36-35-5.47-52.29-9Q50.3,80.7,25.6,74C16.69,71.62,7.83,69-.89,65.93,31.72,70.74,64.4,74.42,97.18,77.7a698,698,0,0,0,165.38-3.5Q292.43,70,321.79,63a561.89,561.89,0,0,0,61.83-18.68c14.56-5.34,29.47-10.82,43.21-18C439.71,19.63,452.36,12.53,465.1,5.59Z"/><path class="cls-2" d="M506.36,177,0,175V65.56c7.15,2.28,14.21,4.85,21.59,6.77C35.35,76,49.11,79.54,63.05,82.54c10.85,2.34,21.91,3.7,32.87,5.7,13.74,2.51,27.35,5.83,41.19,7.68,16.1,2.16,32.37,3.42,48.61,4.49,17.57,1.17,35.19,2.3,52.79,2.3,17.93,0,35.86-1.3,53.79-2.06,3.77-.16,7.58-.2,11.29-.73,17.78-2.51,35.68-4.47,53.25-8,20.34-4.09,40.56-9,60.48-14.7,16.25-4.64,32-10.94,47.94-16.51l12.62,1.44Z"/></svg>